<?xml version="1.0" encoding="UTF-8"?>
<svg id="Layer_1" xmlns="http://www.w3.org/2000/svg" xmlns:xlink="http://www.w3.org/1999/xlink" viewBox="0 0 146.69 58">
  <defs>
    <clipPath id="clippath">
      <rect width="146.69" height="58" style="fill: none;"/>
    </clipPath>
  </defs>
  <g style="clip-path: url(#clippath);">
    <g>
      <path d="M146.69,15.03V0h-18.21c0,.45-.18.88-.5,1.19-.31.32-.75.5-1.19.5-.11,0-.22-.01-.33-.03-.11-.02-.21-.05-.31-.09-.1-.04-.2-.09-.29-.16-.09-.06-.18-.13-.26-.21-.31-.31-.49-.75-.49-1.19H0v15.03c5.04,2.62,8.49,7.89,8.49,13.97s-3.44,11.35-8.49,13.97v15.03h125.11c0-.45.18-.88.49-1.19.08-.08.17-.15.26-.21.09-.06.19-.11.29-.16.1-.04.21-.07.31-.09.55-.11,1.13.07,1.52.46.32.31.5.75.5,1.19h18.21v-15.03c-5.04-2.62-8.49-7.89-8.49-13.97s3.44-11.35,8.49-13.97ZM126.79,51.4c-.93,0-1.69-.76-1.69-1.69s.75-1.69,1.69-1.69,1.69.76,1.69,1.69-.76,1.69-1.69,1.69ZM126.79,43.12c-.93,0-1.69-.76-1.69-1.69s.75-1.69,1.69-1.69,1.69.76,1.69,1.69-.76,1.69-1.69,1.69ZM126.79,34.83c-.93,0-1.69-.75-1.69-1.68s.75-1.69,1.69-1.69,1.69.75,1.69,1.69-.76,1.68-1.69,1.68ZM126.79,26.54c-.93,0-1.69-.76-1.69-1.69s.75-1.68,1.69-1.68,1.69.75,1.69,1.68-.76,1.69-1.69,1.69ZM126.79,18.26c-.93,0-1.69-.76-1.69-1.69s.75-1.69,1.69-1.69,1.69.76,1.69,1.69-.76,1.69-1.69,1.69ZM126.79,9.97c-.93,0-1.69-.76-1.69-1.69s.75-1.69,1.69-1.69,1.69.76,1.69,1.69-.76,1.69-1.69,1.69Z" style="fill: #daac00;"/>
      <path d="M20.22,21.12v4.32h-3.06v-15.3h3.48c4.93,0,7.35,2.25,7.35,5.48,0,3.6-2.59,5.48-7.77,5.5ZM20.76,12.56h-.52v6.17h.96c2.22,0,3.8-1.11,3.8-3.11,0-2.12-1.8-3.06-4.25-3.06h0Z" style="fill: #212121;"/>
      <path d="M33.66,19.12v6.32h-3.06v-15.3h3.43c3.73,0,6.05,1.55,6.05,4.37,0,1.97-1.38,3.18-2.57,3.5,2.14.74,2.91,5.11,5.97,5.11l-.57,2.47c-5.68,0-4.74-6.46-9.25-6.46h0ZM33.66,12.46v4.42c2,0,3.43-.47,3.43-2.27,0-1.7-1.48-2.15-3.43-2.15Z" style="fill: #212121;"/>
      <polygon points="44.89 10.14 53.33 10.14 53.33 12.56 47.95 12.56 47.95 15.89 51.87 15.89 51.87 18.31 47.95 18.31 47.95 23.02 55.3 23.02 54.71 25.44 44.89 25.44 44.89 10.14 44.89 10.14" style="fill: #212121;"/>
      <path d="M61.54,12.36c-1.16,0-2.17.54-2.17,1.61,0,2.84,7.13,1.93,7.13,7.1,0,2.64-2.07,4.61-5.48,4.61-2,0-4.02-.79-5.3-1.78l1.31-2.22c.81.69,2.44,1.55,3.97,1.55s2.49-.91,2.49-2.15c0-3.13-7.16-2.22-7.16-7.11,0-2.54,2.1-4.07,4.96-4.07,2.22,0,3.73.84,4.34,1.33l-.22,2.57c-.94-.77-2.37-1.46-3.87-1.46h0Z" style="fill: #212121;"/>
      <polygon points="74.25 25.44 71.24 25.44 71.24 12.56 67.39 12.56 67.98 10.14 77.78 10.14 77.78 12.56 74.25 12.56 74.25 25.44 74.25 25.44" style="fill: #212121;"/>
      <rect x="79.92" y="10.14" width="3.06" height="15.3" style="fill: #212121;"/>
      <path d="M93.69,25.61c-4.93,0-8.07-3.06-8.07-7.85s3.26-7.82,8.22-7.82c1.78,0,4.02.64,5.33,1.5l-.22,2.52c-1.31-.94-3.41-1.63-4.96-1.63-3.16,0-5.3,2.17-5.3,5.4s2.05,5.48,5.11,5.48c1.63,0,2.86-.64,2.98-.67v-5.55h3.06v6.69c-.52.32-2.96,1.93-6.14,1.93h0Z" style="fill: #212121;"/>
      <polygon points="102.96 10.14 111.4 10.14 111.4 12.56 106.02 12.56 106.02 15.89 109.94 15.89 109.94 18.31 106.02 18.31 106.02 23.02 113.38 23.02 112.78 25.44 102.96 25.44 102.96 10.14" style="fill: #212121;"/>
      <path d="M75.09,45.49l4.19-12.09h1.68l-5.72,15.59h-.32l-4.05-12.34-4.05,12.34h-.32l-5.73-15.59h1.68l4.19,12.07c.81-2.15,1.75-4.86,4.05-12.29h.32l4.07,12.31Z" style="fill: #212121;"/>
      <rect x="82.68" y="33.4" width="1.63" height="15.3" style="fill: #212121;"/>
      <polygon points="89.39 36.65 89.39 48.7 87.77 48.7 87.77 33.15 88.09 33.15 99.09 45.46 99.09 33.4 100.72 33.4 100.72 48.89 100.35 48.89 89.39 36.65 89.39 36.65" style="fill: #212121;"/>
      <path d="M112.31,35.92c-1.06-.79-2.42-1.33-3.82-1.33-1.48,0-3.21.59-3.21,2.34,0,3.8,8.09,2.15,8.09,7.65,0,2.57-2.05,4.39-5.16,4.39-1.7,0-3.4-.42-5.15-1.68l.69-1.23c1.43,1.01,3.06,1.53,4.44,1.53,2.29,0,3.58-1.28,3.58-3.01,0-4.32-8.12-2.62-8.12-7.62,0-2.39,2.02-3.77,4.76-3.77,1.65,0,3.06.57,4,1.26-.02.49-.07.99-.1,1.48h0Z" style="fill: #212121;"/>
    </g>
  </g>
</svg>