<?xml version="1.0" encoding="UTF-8"?>
<svg id="Layer_1" xmlns="http://www.w3.org/2000/svg" viewBox="0 0 256 256">
  <g>
    <path d="M38,53.9c0,1.4,1.3,2.1,6,3.1l6,1.3v139.4l-6,1.3c-4.7,1-6,1.7-6,3.1,0,1.8,1.6,1.9,37.3,1.9,20.4,0,40.5-.5,44.6-1,24.6-3.2,39.8-11.8,45.2-25.7,3.3-8.5,3.3-21-.1-27.8-6.4-13.1-23.5-22.3-44.8-24.2-4-.3-7-.8-6.8-1,.2-.3,3.7-.9,7.8-1.4,24.9-3.1,38.8-15,38.8-33,0-15.4-9.6-26.7-28-33.1-11.6-4-21.7-4.8-58.7-4.8-33.8,0-35.3.1-35.3,1.9ZM107.4,60.9c6.1,3.4,10.7,9,13.6,16.8,4.2,11.1,1.6,26-6.1,34.7-5.3,6.1-9.6,7.7-19.7,7.4l-8.7-.3-.3-30c-.1-16.5,0-30.6.3-31.4,1-2.5,14.8-.7,20.9,2.8ZM113.5,130.4c11.6,5,18.7,20.1,17.1,36.6-1.4,14.3-6.7,22.9-17,28-6.1,3-7.4,3.3-16.9,3.4l-10.2.1-.3-34c-.1-18.7,0-34.6.3-35.4.8-2,21.6-1,27,1.3Z"/>
    <path d="M191.6,163c-4.2,1.3-9,4.9-11.7,8.8-2,3-2.4,4.8-2.4,11.2s.4,8.2,2.7,11.7c3.3,5,11.3,9.3,17.3,9.3s14-4.3,17.3-9.3c2.3-3.5,2.7-5.1,2.7-11.7s-.4-8.2-2.7-11.7c-4.7-7.1-14.9-10.8-23.2-8.3Z"/>
  </g>
  <path d="M256,66.71V0h-80.81c0,1.98-.79,3.89-2.2,5.28-1.39,1.41-3.32,2.2-5.28,2.2-.5,0-.98-.04-1.47-.15-.48-.09-.94-.24-1.39-.42-.46-.19-.9-.42-1.3-.69-.4-.28-.79-.6-1.14-.94-1.39-1.39-2.18-3.32-2.18-5.28H-394.96v66.71c22.39,11.63,37.67,35.03,37.67,61.98s-15.28,50.36-37.67,61.98v66.71H160.23c0-1.98.79-3.89,2.18-5.3.34-.34.73-.66,1.14-.93.4-.27.84-.49,1.3-.69.45-.18.91-.33,1.39-.42,2.42-.49,5.01.3,6.75,2.04,1.41,1.39,2.2,3.32,2.2,5.3h80.81v-66.71c-22.39-11.63-37.67-35.03-37.67-61.98s15.28-50.36,37.67-61.98ZM167.71,228.1c-4.13,0-7.48-3.35-7.48-7.48s3.35-7.48,7.48-7.48,7.48,3.35,7.48,7.48-3.35,7.48-7.48,7.48ZM167.71,191.34c-4.13,0-7.48-3.35-7.48-7.48s3.35-7.48,7.48-7.48,7.48,3.35,7.48,7.48-3.35,7.48-7.48,7.48ZM167.71,154.55c-4.13,0-7.48-3.34-7.48-7.47s3.35-7.48,7.48-7.48,7.48,3.34,7.48,7.48-3.35,7.47-7.48,7.47ZM167.71,117.79c-4.13,0-7.48-3.35-7.48-7.48s3.35-7.47,7.48-7.47,7.48,3.34,7.48,7.47-3.35,7.48-7.48,7.48ZM167.71,81.02c-4.13,0-7.48-3.35-7.48-7.48s3.35-7.48,7.48-7.48,7.48,3.35,7.48,7.48-3.35,7.48-7.48,7.48ZM167.71,44.25c-4.13,0-7.48-3.35-7.48-7.48s3.35-7.48,7.48-7.48,7.48,3.35,7.48,7.48-3.35,7.48-7.48,7.48Z" style="fill: #daac00;"/>
</svg>